<?xml version="1.0" encoding="UTF-8"?>
<!DOCTYPE svg PUBLIC "-//W3C//DTD SVG 1.1//EN" "http://www.w3.org/Graphics/SVG/1.1/DTD/svg11.dtd">
<!-- Creator: CorelDRAW -->
<svg xmlns="http://www.w3.org/2000/svg" xml:space="preserve" width="1.70666in" height="1.70666in" version="1.1" style="shape-rendering:geometricPrecision; text-rendering:geometricPrecision; image-rendering:optimizeQuality; fill-rule:evenodd; clip-rule:evenodd"
viewBox="0 0 1706.66 1706.66"
 xmlns:xlink="http://www.w3.org/1999/xlink"
 xmlns:xodm="http://www.corel.com/coreldraw/odm/2003">
 <defs>
  <style type="text/css">
   <![CDATA[
    .fil0 {fill:#A8BFC9}
   ]]>
  </style>
 </defs>
 <g id="Layer_x0020_1">
  <metadata id="CorelCorpID_0Corel-Layer"/>
  <path class="fil0" d="M1280.13 1494.16l-853.6 0c-118.06,0 -214.03,-95.97 -214.03,-214.03l0 -853.6c0,-118.06 95.97,-214.03 214.03,-214.03l853.6 0c118.06,0 214.03,95.97 214.03,214.03l0 853.61c0,118.05 -95.97,214.02 -214.03,214.02zm-853.6 -1241.66c-95.97,0 -174.03,78.06 -174.03,174.03l0 853.61c0,95.97 78.06,174.03 174.03,174.03l853.6 -0c95.97,0 174.03,-78.06 174.03,-174.03l0 -853.6c0,-95.97 -78.06,-174.03 -174.03,-174.03l-853.6 0z"/>
  <path class="fil0" d="M563.06 252.5c-11.11,0 -20,-8.89 -20,-20l0 -212.5c0,-26.36 40,-26.36 40,0l0 212.5c0,11.11 -8.89,20 -20,20z"/>
  <path class="fil0" d="M853.33 252.5c-11.11,0 -20,-8.89 -20,-20l0 -212.5c0,-26.36 40,-26.36 40,0l0 212.5c0,11.11 -8.89,20 -20,20z"/>
  <path class="fil0" d="M1143.6 252.5c-10.97,0 -20,-8.89 -20,-20l0 -212.5c0,-26.33 40,-26.33 40,0l0 212.5c0,11.11 -9.03,20 -20,20z"/>
  <path class="fil0" d="M1686.66 583.06l-212.5 0c-26.33,0 -26.33,-40 0,-40l212.5 0c26.27,0 26.43,40 0,40z"/>
  <path class="fil0" d="M1686.66 873.33l-212.5 0c-26.33,0 -26.33,-40 0,-40l212.5 0c26.27,0 26.43,40 0,40z"/>
  <path class="fil0" d="M1686.66 1163.6l-212.5 0c-26.3,0 -26.3,-40 0,-40l212.5 0c26.24,0 26.39,40 0,40z"/>
  <path class="fil0" d="M1143.6 1706.66c-10.97,0 -20,-9.03 -20,-20l0 -212.5c0,-26.3 40,-26.3 40,0l0 212.5c0,11.11 -9.03,20 -20,20z"/>
  <path class="fil0" d="M853.33 1706.66c-11.11,0 -20,-9.03 -20,-20l0 -212.5c0,-26.33 40,-26.33 40,0l0 212.5c0,11.11 -8.89,20 -20,20z"/>
  <path class="fil0" d="M563.06 1706.66c-11.11,0 -20,-9.03 -20,-20l0 -212.5c0,-26.33 40,-26.33 40,0l0 212.5c0,11.11 -8.89,20 -20,20z"/>
  <path class="fil0" d="M232.5 1163.6l-212.5 0c-26.33,0 -26.33,-40 0,-40l212.5 0c26.33,0 26.33,40 0,40z"/>
  <path class="fil0" d="M232.5 873.33l-212.5 0c-26.36,0 -26.36,-40 0,-40l212.5 0c26.36,0 26.36,40 0,40z"/>
  <path class="fil0" d="M232.5 583.06l-212.5 0c-26.36,0 -26.36,-40 0,-40l212.5 0c26.36,0 26.36,40 0,40z"/>
  <path class="fil0" d="M862.35 1317.49l-143.47 0c-11.11,0 -20,-9.03 -20,-20l0 -73.89c-35.56,-12.08 -68.61,-31.25 -96.94,-56.11l-64.03 36.94c-9.58,5.56 -21.81,2.22 -27.36,-7.36l-71.81 -124.31c-5.56,-9.58 -2.22,-21.81 7.36,-27.36l64.03 -36.94c-7.27,-36.91 -7.54,-75.19 0,-112.08l-64.03 -36.94c-9.58,-5.56 -12.78,-17.78 -7.36,-27.36l71.81 -124.31c5.56,-9.58 17.78,-12.78 27.36,-7.36l64.03 36.94c28.33,-24.86 61.39,-44.03 96.94,-56.11l0 -73.89c0,-11.11 8.89,-20 20,-20l143.61 0.01c10.97,0 20,8.89 20,20l0 73.89c35.56,12.08 68.61,31.25 96.94,56.11l64.03 -36.94c9.58,-5.56 21.81,-2.22 27.36,7.36l71.81 124.31c5.56,9.58 2.22,21.8 -7.36,27.36l-63.89 36.94c7.29,37.03 7.52,75 0,112.08l64.03 36.94c9.58,5.56 12.78,17.78 7.36,27.36l-71.94 124.44c-5.56,9.58 -17.78,12.78 -27.36,7.36l-64.03 -36.94c-28.33,24.86 -61.39,44.03 -96.94,56.11l0 73.89c0,10.83 -9.03,19.86 -20.14,19.86zm-123.47 -40l103.61 0 0 -68.61c0,-31.92 48.97,-10.74 120.27,-80.42 6.39,-6.25 16.25,-7.5 24.03,-3.06l59.44 34.31 51.81 -89.72c-102.31,-59.05 -61.25,-24.42 -61.25,-117.64 0,-93.15 -41.2,-58.37 61.25,-117.5l-51.81 -89.72 -59.44 34.31c-27.64,15.87 -34.8,-37.82 -129.72,-64.17 -8.61,-2.36 -14.58,-10.28 -14.58,-19.31l0 -68.61 -103.61 -0.01 0 68.61c0,31.92 -48.98,10.74 -120.28,80.42 -6.39,6.25 -16.25,7.5 -24.03,3.06l-59.44 -34.31 -51.81 89.72c102.38,59.08 61.11,24.32 61.11,117.5 0,93.35 41.19,58.52 -61.25,117.64l51.81 89.72 59.44 -34.31c27.68,-15.89 34.72,37.8 129.72,64.17 8.61,2.36 14.58,10.28 14.58,19.31l0 68.62 0.14 0z"/>
  <path class="fil0" d="M790.69 1134.02c-100,0 -181.53,-81.39 -181.53,-181.53 0,-100 81.39,-181.52 181.53,-181.52 100.13,0 181.52,81.39 181.52,181.52 -0.14,100.14 -81.53,181.53 -181.52,181.53zm0 -322.91c-78.06,0 -141.53,63.47 -141.53,141.52 0,78.06 63.47,141.53 141.53,141.53 78.05,0 141.52,-63.47 141.52,-141.53 0,-78.06 -63.61,-141.52 -141.52,-141.52z"/>
  <path class="fil0" d="M1099.72 818.05c-21.59,0 -27.77,-29.83 -7.92,-38.33 72.64,-31.11 30.08,-58.19 104.17,-15.28l27.36 -47.36c-64.71,-37.48 -37.92,-19.97 -37.92,-80.14 0,-60.21 -26.94,-42.71 37.92,-80l-27.36 -47.36c-23.11,13.39 -42.5,30.69 -57.36,16.25 -47.61,-46.23 -81.39,-29.73 -81.39,-57.92l0 -38.76 -54.72 0c0,26.72 5.24,52.15 -14.58,57.78 -62.57,17.77 -66.68,55.51 -90.83,41.67l-33.33 -19.17 -61.94 108.19c-13,22.84 -47.7,3.12 -34.72,-19.72l71.81 -125.69c13.51,-23.57 41,0.37 65.41,14.44 17.22,-14.44 36.94,-25.83 57.92,-33.47 0,-76.7 -13.2,-63.89 114.72,-63.89 26.5,0 20,35.05 20,63.89 20.97,7.78 40.69,19.17 57.92,33.47 66.69,-38.46 48.72,-43.25 112.78,67.5 13.28,22.97 -20.47,34.92 -45.42,49.31 3.89,21.94 3.89,45 0,66.94 66.29,38.22 62.16,20.56 -1.94,131.39 -13.29,22.98 -40.61,-0.28 -65.42,-14.58 -10.19,8.6 -41.91,30.83 -55.14,30.83z"/>
  <path class="fil0" d="M1011.94 761.94c-1.11,0 -2.22,-0.14 -3.33,-0.28 -61.11,-10.28 -105.42,-62.78 -105.42,-124.86 0,-69.72 56.81,-126.53 126.53,-126.53 69.86,0 126.53,56.81 126.53,126.53 0,53.89 -34.17,101.94 -85,119.58 -10.74,3.76 -19.63,-1.31 -25.14,-11.11 -9.52,5.47 -25.7,16.67 -34.17,16.67zm17.78 -211.67c-47.78,0 -86.53,38.89 -86.53,86.53 0,40.14 27.08,74.44 65.28,83.89 10.12,-1.43 46.25,-40.41 62.08,-12.78l2.22 3.89c75.85,-43.91 45.61,-161.53 -43.06,-161.53z"/>
 </g>
</svg>
